# xmcd CD database file
#
# Track frame offsets:
#	150
#	11360
#	25965
#	39202
#	52727
#	65415
#	77937
#	90987
#	103752
#	115945
#	130147
#	142667
#	155880
#	169125
#	181367
#	194535
#	210867
#	222077
#	233612
#	247452
#	260380
#	273870
#	287365
#	298327
#
# Disc length: 4147 seconds
#
# Revision: 4
# Processed by: cddbd v1.5.2PL0 Copyright (c) Steve Scherf et al.
# Submitted via: CDex 1.70beta2
#
DISCID=4f103118
DTITLE=Les Paul - The Trio's Complete Decca Recordings Plus (1936-47) - Decca, MCA - D2
DYEAR=1945
DGENRE=Jazz
TTITLE0=Baby, What You Do For Me (with Helen Forrest)
TTITLE1=Everybody Knew But Me (with Helen Forrest)
TTITLE2=Song of the Islands (Les Paul and His Trio)
TTITLE3=Sweet Leilani (Les Paul and His Trio)
TTITLE4=Kings Serenade (Les Paul and His Trio)
TTITLE5=To You, Sweetheart, Aloha (Les Paul and His Trio)
TTITLE6=Sweet Hawaiian Moonlight (Les Paul and His Trio)
TTITLE7=Aloha Oe (Les Paul and His Trio)
TTITLE8=Pretending (with Bing Crosby)
TTITLE9=Gotta Get Me Somebody to Love (with Bing Crosby)
TTITLE10=A One-Sided Affair (with Delta Rhythm Boys)
TTITLE11=What Would it Take? (with Delta Rhythm Boys)
TTITLE12=Rumors are Flying (with The Andrews Sisters)
TTITLE13=It's a Pity to Say Goodnight (with The Andrews Sisters) (previously unreleased) 
TTITLE14=Steel Guitar Rag (Les Paul and His Trio)
TTITLE15=Guitar Boogie (Les Paul and His Trio) (previously unreleased)
TTITLE16=Guitar Boogie (Les Paul and His Trio)
TTITLE17=Caravan (Les Paul and His Trio) (previously unreleased)
TTITLE18=Somebody Loves Me (Les Paul and His Trio) (previously unreleased)
TTITLE19=Gotta Get Me Somebody to Love (with Bing Crosby)
TTITLE20=What Am I Gonna Do About You? (with Bing Crosby)
TTITLE21=Drifting and Dreaming (Sweet Paradise) (with Bing Crosby)
TTITLE22=What Are You Doing For New Years Eve? (with Dick Haymes)
TTITLE23=My Future Just Passed (with Dick Haymes)
EXTD=1997c YEAR: 1945
EXTT0=Helen Forrest (1-2)
EXTT1=
EXTT2=Les Paul and His Trio (3-8)
EXTT3=
EXTT4=
EXTT5=
EXTT6=
EXTT7=
EXTT8=Bing Crosby (9-10)
EXTT9=
EXTT10=Delta Rhythm Boys (11-12)
EXTT11=
EXTT12=Andrews Sisters (13-14)
EXTT13=
EXTT14=Les Paul and His Trio (15-19)
EXTT15=
EXTT16=
EXTT17=
EXTT18=
EXTT19=Bing Crosby (20-22)
EXTT20=
EXTT21=
EXTT22=Dick Haymes (23-24)
EXTT23=
PLAYORDER=
